<svg width="52" height="52" viewBox="0 0 52 52" fill="none" xmlns="http://www.w3.org/2000/svg">
<mask id="mask0_101_19" style="mask-type:alpha" maskUnits="userSpaceOnUse" x="0" y="0" width="52" height="52">
<g clip-path="url(#clip0_101_19)">
<path d="M0.5 25.9875C0.5 32.9815 3.33886 39.3037 7.89599 43.9083C8.21972 44.232
8.56835 44.232 8.84227 43.8836L9.9629 42.614C10.2617 42.2906 10.2368 41.9919
9.93798 41.6682C6.00341 37.6111 3.5381 32.0607 3.5381 25.9875C3.5381 13.7416
13.6982 3.56148 26 3.56148C38.3017 3.56148 48.4619 13.7416 48.4619
25.9875C48.4619 32.0607 45.9966 37.6111 42.0619 41.6682C41.7631 41.9919 41.7383
42.2906 42.0372 42.614L43.1577 43.8836C43.4315 44.232 43.7804 44.232 44.104
43.9083C48.6611 39.3287 51.5 32.9815 51.5 25.9875C51.5 12.0241 40.0699 0.5 26
0.5C11.9302 0.5 0.5 12.0241 0.5 25.9875ZM7.74659 25.9875C7.74659 30.8161 9.61426
35.1719 12.7022 38.4575C13.0259 38.8059 13.3745 38.781 13.6734 38.4575L14.7939
37.213C15.1177 36.8893 15.0679 36.5908 14.769 36.2422C12.3037 33.5043 10.8096
29.9202 10.8096 25.9875C10.8096 17.6742 17.6577 10.8045 26 10.8045C34.3423
10.8045 41.1903 17.6742 41.1903 25.9875C41.1903 29.9202 39.6963 33.5043 37.231
36.2174C36.9321 36.5658 36.8824 36.8646 37.206 37.188L38.3517 38.4575C38.6256
38.781 38.9991 38.8059 39.2977 38.4575C42.3608 35.1719 44.2534 30.8161 44.2534
25.9875C44.2534 15.9817 36.0605 7.74304 26 7.74304C15.9395 7.74304 7.74659
15.9817 7.74659 25.9875ZM9.88818 48.5878C9.14111 49.434 9.58935 50.6288 10.7598
50.6288H41.1903C42.3608 50.6288 42.8091 49.4093 42.0869 48.5878L27.046
31.5879C26.473 30.9408 25.477 30.9408 24.9043 31.5879L9.88818 48.5878ZM14.9932
25.9875C14.9932 28.626 15.9145 31.0402 17.5083 32.9568C17.7822 33.3052 18.1309
33.3052 18.4546 32.9568L19.625 31.7372C19.9238 31.4385 19.8989 31.1148 19.6748
30.7664C18.6538 29.4472 18.0562 27.7548 18.0562 25.9875C18.0562 21.6566 21.667
18.0476 26 18.0476C30.333 18.0476 33.9438 21.6566 33.9438 25.9875C33.9438
27.7548 33.3463 29.4472 32.3253 30.7664C32.0761 31.1148 32.0511 31.4385 32.375
31.762L33.5454 32.9568C33.8443 33.3052 34.2179 33.3052 34.4918 32.9568C36.0855
31.0402 37.0068 28.626 37.0068 25.9875C37.0068 19.9641 32.0511 14.9861 26
14.9861C19.9487 14.9861 14.9932 19.9641 14.9932 25.9875Z" fill="black" />
</g>
</mask>
<g mask="url(#mask0_101_19)">
<rect x="-1" y="-1.75" width="54" height="54.75" fill="url(#paint0_linear_101_19)"/>
</g>
<defs>
<linearGradient id="paint0_linear_101_19" x1="-1" y1="53" x2="-0.886652" y2="3.12526" gradientUnits="userSpaceOnUse">
<stop stop-color="#FAAF00"/>
<stop offset="1" stop-color="#FF0065"/>
</linearGradient>
<clipPath id="clip0_101_19">
<rect width="51" height="51" fill="white" transform="translate(0.5 0.5)"/>
</clipPath>
</defs>
</svg>
