<svg width="82" height="52" viewBox="0 0 82 52" fill="none" xmlns="http://www.w3.org/2000/svg">
<mask id="mask0_104_480" style="mask-type:alpha" maskUnits="userSpaceOnUse" x="13" y="5" width="56" height="41">
<path d="M59.3281 9.03906C59.3281 9.03906 59.3281 9.03906 59.2383 9.03906C55.8242 7.42188 52.2305 6.34375 48.5469 5.71484C48.457 5.625 48.3672 5.71484 48.3672 5.71484C47.8281 6.61328 47.3789 7.60156 47.0195 8.5C42.9766 7.87109 38.9336 7.87109 34.8906 8.5C34.5312 7.60156 34.082 6.61328 33.543 5.71484C33.543 5.71484 33.4531 5.625 33.3633 5.71484C29.6797 6.34375 26.0859 7.42188 22.6719 9.03906C22.582 9.03906 22.582 9.03906 22.582 9.03906C15.7539 19.2812 13.8672 29.2539 14.7656 39.1367C14.7656 39.1367 14.7656 39.2266 14.8555 39.2266C18.8086 42.1914 23.3008 44.4375 28.0625 45.875C28.0625 45.9648 28.1523 45.875 28.2422 45.875C29.2305 44.4375 30.1289 43 30.9375 41.4727C30.9375 41.3828 30.9375 41.3828 30.9375 41.293C30.8477 41.293 30.8477 41.2031 30.8477 41.2031C29.4102 40.6641 27.9727 40.0352 26.7148 39.2266C26.625 39.2266 26.625 39.2266 26.625 39.1367C26.625 39.0469 26.625 39.0469 26.7148 38.957C26.9844 38.7773 27.2539 38.5977 27.5234 38.3281C27.5234 38.3281 27.6133 38.3281 27.7031 38.3281C36.3281 42.2812 45.6719 42.2812 54.207 38.3281C54.2969 38.3281 54.2969 38.3281 54.3867 38.3281C54.6562 38.5977 54.9258 38.7773 55.1953 38.957C55.2852 39.0469 55.2852 39.0469 55.2852 39.1367C55.2852 39.2266 55.1953 39.2266 55.1953 39.2266C53.8477 40.0352 52.5 40.6641 51.0625 41.2031L50.9727 41.293C50.9727 41.3828 50.9727 41.3828 50.9727 41.4727C51.7812 43 52.6797 44.4375 53.668 45.875C53.7578 45.875 53.7578 45.9648 53.8477 45.875C58.6094 44.4375 63.1016 42.1914 67.0547 39.2266C67.1445 39.2266 67.1445 39.1367 67.1445 39.1367C68.2227 27.7266 65.2578 17.8438 59.3281 9.03906ZM32.1953 33.1172C29.5898 33.1172 27.4336 30.6914 27.4336 27.8164C27.4336 24.8516 29.5898 22.5156 32.1953 22.5156C34.8906 22.5156 36.957 24.8516 36.957 27.8164C36.957 30.6914 34.8008 33.1172 32.1953 33.1172ZM49.7148 33.1172C47.1094 33.1172 45.043 30.6914 45.043 27.8164C45.043 24.8516 47.1094 22.5156 49.7148 22.5156C52.4102 22.5156 54.5664 24.8516 54.4766 27.8164C54.4766 30.6914 52.4102 33.1172 49.7148 33.1172Z" fill="#FF3C00"/>
</mask>
<g mask="url(#mask0_104_480)">
<rect x="14" y="-1.75" width="54" height="54.75" fill="url(#paint0_linear_104_480)"/>
</g>
<defs>
<linearGradient id="paint0_linear_104_480" x1="14" y1="-2" x2="67.9884" y2="53.0114" gradientUnits="userSpaceOnUse">
<stop stop-color="#FAAF00"/>
<stop offset="1" stop-color="#FF0065"/>
</linearGradient>
</defs>
</svg>
