<svg width="43" height="53" viewBox="0 0 43 53" fill="none" xmlns="http://www.w3.org/2000/svg">
<mask id="mask0_101_41" style="mask-type:alpha" maskUnits="userSpaceOnUse" x="0" y="0" width="43" height="53">
<g clip-path="url(#clip0_101_41)">
<path d="M0.25 43.9439C0.25 48.84 2.77887 51.3116 7.81254 51.3116H35.4375C40.4711 51.3116 43 48.84 43 43.9439V20.7005C43 15.8046 40.4711 13.3329 35.4375 13.3329H23.5397V1.85378C23.5397 0.855588 22.6727 0 21.637 0C20.6014 0 19.7103 0.855588 19.7103 1.85378V13.3329H7.81254C2.77887 13.3329 0.25 15.8046 0.25 20.7005V43.9439ZM21.6129 35.9824C21.1313 35.9824 20.7218 35.8398 20.216 35.3642L12.0755 27.5928C11.7142 27.2362 11.5215 26.8561 11.5215 26.357C11.5215 25.3825 12.2441 24.6933 13.2556 24.6933C13.7132 24.6933 14.2431 24.8834 14.5803 25.2638L18.6746 29.5417L19.8548 30.7775L19.7103 27.2124V14.9966C19.7103 13.9271 20.481 13.1903 21.6129 13.1903C22.7449 13.1903 23.5397 13.9271 23.5397 14.9966V27.2124L23.3952 30.7775L24.5513 29.5417L28.6696 25.2638C29.007 24.8834 29.4886 24.6933 29.9703 24.6933C30.9578 24.6933 31.7285 25.3825 31.7285 26.357C31.7285 26.8561 31.5117 27.2362 31.1504 27.5928L23.0099 35.3642C22.5281 35.8398 22.1187 35.9824 21.6129 35.9824Z" fill="black" />
</g>
</mask>
<g mask="url(#mask0_101_41)">
<rect x="-5" y="-0.75" width="54" height="54.75" fill="url(#paint0_linear_101_41)"/>
</g>
<defs>
<linearGradient id="paint0_linear_101_41" x1="-5" y1="54" x2="-4.88665" y2="4.12526" gradientUnits="userSpaceOnUse">
<stop stop-color="#FAAF00"/>
<stop offset="1" stop-color="#FF0065"/>
</linearGradient>
<clipPath id="clip0_101_41">
<rect width="42.75" height="52.5" fill="white" transform="translate(0.25)"/>
</clipPath>
</defs>
</svg>
