<svg width="1440" height="1440" viewBox="0 0 1440 1440" fill="none" xmlns="http://www.w3.org/2000/svg">
<path d="M1092.39 288.553L573.643 382.303C562.489 384.32 554.375 394.032 554.375 405.367V907.656C529.476 885.343 496.611 871.749 460.624 871.749C383.084 871.749 320 934.833 320 1012.37C320 1089.92 383.084 1153 460.624 1153C538.165 1153 601.251 1089.92 601.251 1012.37V596.824L1073.13 511.545V837.344C1048.23 815.031 1015.36 801.437 979.375 801.437C901.835 801.437 838.749 864.521 838.749 942.063C838.749 1019.6 901.835 1082.69 979.375 1082.69C1056.91 1082.69 1120 1019.6 1120 942.063V311.617C1120 304.673 1116.92 298.085 1111.59 293.632C1107.34 290.083 1102.01 288.18 1096.56 288.179C1095.18 288.179 1093.78 288.303 1092.39 288.553Z" fill="url(#paint0_linear_1_3)"/>
<defs>
<linearGradient id="paint0_linear_1_3" x1="448.655" y1="359.899" x2="1083.15" y2="1116.06" gradientUnits="userSpaceOnUse">
<stop stop-color="#FAAF00"/>
<stop offset="0.404038" stop-color="#FAAF00"/>
<stop offset="1" stop-color="#FF0065"/>
</linearGradient>
</defs>
</svg>
