<svg width="1440" height="1440" viewBox="0 0 1440 1440" fill="none" xmlns="http://www.w3.org/2000/svg">
<path d="M1339.11 0.623374L476.682 156.615C458.139 159.972 444.648 176.132 444.648 194.992V1030.77C403.254 993.638 348.616 971.019 288.788 971.019C159.877 971.019 55 1075.99 55 1205.01C55 1334.03 159.877 1439 288.788 1439C417.7 1439 522.58 1334.03 522.58 1205.01V513.563L1307.07 371.666V913.771C1265.68 876.644 1211.04 854.025 1151.21 854.025C1022.3 854.025 917.422 958.992 917.422 1088.02C917.422 1217.04 1022.3 1322 1151.21 1322C1280.12 1322 1385 1217.04 1385 1088.02V39.0003C1385 27.446 1379.88 16.484 1371.02 9.07395C1363.96 3.16812 1355.1 0.00216161 1346.04 -5.6958e-05C1343.73 -5.6958e-05 1341.41 0.206283 1339.11 0.623374Z" fill="url(#paint0_linear_1_3)"/>
<defs>
<linearGradient id="paint0_linear_1_3" x1="268.889" y1="119.337" x2="1324.8" y2="1376.65" gradientUnits="userSpaceOnUse">
<stop stop-color="#FAAF00"/>
<stop offset="0.404038" stop-color="#FAAF00"/>
<stop offset="1" stop-color="#FF0065"/>
</linearGradient>
</defs>
</svg>
