<svg width="22" height="21" viewBox="0 0 22 21" fill="none" xmlns="http://www.w3.org/2000/svg">
<g>
<path d="M18.2778 9.38342H3.98051C3.24024 9.38342 2.64014 9.98352 2.64014 10.7238V19.6595C2.64014 20.3998 3.24024 20.9999 3.98051 20.9999H18.2778C19.0181 20.9999 19.6182 20.3998 19.6182 19.6595V10.7238C19.6182 9.98352 19.0181 9.38342 18.2778 9.38342Z" fill="currentColor"/>
<path fill-rule="evenodd" clip-rule="evenodd" d="M2.55217 0.800326C2.13005 0.254058 1.34501 0.153413 0.798742 0.575529C0.252471 0.997646 0.151825 1.78268 0.573944 2.32894L2.4728 4.78628C2.52366 4.8521 2.57979 4.91145 2.64014 4.96419V7.5963C2.64014 8.33656 3.24024 8.93666 3.98051 8.93666H18.2778C19.0181 8.93666 19.6182 8.33656 19.6182 7.5963V4.96463C19.6787 4.91177 19.735 4.85228 19.786 4.78628L21.6848 2.32894C22.107 1.78268 22.0063 0.997646 21.46 0.575529C20.9138 0.153413 20.1287 0.254058 19.7066 0.800326L17.9076 3.12842H4.35115L2.55217 0.800326ZM15.5416 7.81965C16.3744 7.81965 17.0495 7.14454 17.0495 6.31174C17.0495 5.47895 16.3744 4.80383 15.5416 4.80383C14.7088 4.80383 14.0337 5.47895 14.0337 6.31174C14.0337 7.14454 14.7088 7.81965 15.5416 7.81965ZM8.33712 6.31174C8.33712 7.14454 7.662 7.81965 6.82921 7.81965C5.99641 7.81965 5.32129 7.14454 5.32129 6.31174C5.32129 5.47895 5.99641 4.80383 6.82921 4.80383C7.662 4.80383 8.33712 5.47895 8.33712 6.31174Z" fill="currentColor"/>
</g>
</svg>
